<svg xmlns="http://www.w3.org/2000/svg" width="248" height="27" viewBox="0 0 248 27"><g><g><g><path fill="#fff" d="M229.975 21.346h17.04v5.14h-17.04zm0-10.303h17.15v5.143h-17.15zm17.15-5.157h-17.15V.743h17.15z"/></g><g><path fill="#fff" d="M224.239.743v5.143h-7.124v20.6h-5.14v-20.6h-7.161V.743z"/></g><g><path fill="#fff" d="M193.364.743l12.154 25.743h-5.691l-7.344-15.643-7.97 15.643h-5.765L191.858.743z"/></g><g><path fill="#fff" d="M165.278 21.346h9.584v5.105h-14.727V.743h5.143z"/></g><g><path fill="#fff" d="M145.452 15.58c-.845-.221-2.424-.624-3.892-1.616-2.057-1.359-3.195-3.342-3.306-5.802-.11-2.057.552-3.856 1.874-5.252 1.909-1.982 4.663-2.534 5.986-2.534 3.746 0 5.837 1.36 7.711 2.572l.845.55-2.681 4.37-.919-.588c-1.652-1.066-2.716-1.763-4.956-1.763-.332 0-1.616.258-2.277.957-.221.218-.478.623-.442 1.467.037 1.323.956 2.058 3.306 2.646.292.07.514.144.735.218 2.46.845 4.37 1.984 5.69 3.416 1.323 1.468 2.02 3.195 2.02 5.031 0 1.799-.77 3.673-2.056 5.105A7.82 7.82 0 0 1 147.179 27c-1.14 0-2.681-.074-4.518-.623-2.314-.735-4.37-2.02-6.131-3.894l3.744-3.526c2.718 2.902 5.766 2.902 6.905 2.902 2.13 0 2.826-1.946 2.826-2.607 0-1.396-1.579-2.68-4.26-3.599l-.11-.038z"/></g><g><path fill="#fff" d="M118.217 26.486l-14.468-15.02v15.02h-5.142V.743h1.617l14.21 14.397V.743h5.141v25.743z"/></g><g><path fill="#fff" d="M82.936.743L95.09 26.486H89.4l-7.344-15.643-7.968 15.643H68.32L81.432.743z"/></g><g><path fill="#fff" d="M47.284 26.486h17.039v-5.14h-17.04zm0-10.227h17.15v-5.142h-17.15zM64.434.743h-17.15v5.143h17.15z"/></g><g><path fill="#fff" d="M32.712 21.346h9.584v5.105H27.57V.743h5.143z"/></g><g><path fill="#fff" d="M18.252 6.987C13.257 3.755 5.73 6.767 5.73 13.67c0 7.237 7.969 10.136 12.815 6.463l3.306 3.783C19.537 25.825 16.563 27 13.33 27 5.987 27 0 21.015 0 13.67 0 6.325 5.987.338 13.33.338c3.086 0 5.95 1.065 8.227 2.828z"/></g></g></g></svg>