<?xml version="1.0" encoding="UTF-8" standalone="no"?>
<svg
   xmlns:dc="http://purl.org/dc/elements/1.1/"
   xmlns:cc="http://creativecommons.org/ns#"
   xmlns:rdf="http://www.w3.org/1999/02/22-rdf-syntax-ns#"
   xmlns:svg="http://www.w3.org/2000/svg"
   xmlns="http://www.w3.org/2000/svg"
   xmlns:sodipodi="http://sodipodi.sourceforge.net/DTD/sodipodi-0.dtd"
   xmlns:inkscape="http://www.inkscape.org/namespaces/inkscape"
   width="181"
   height="190.78"
   viewBox="0 0 181 190.78"
   version="1.1"
   id="svg108"
   sodipodi:docname="CleanSlate_PlayWithAudio-white2.svg"
   inkscape:version="1.0.2 (e86c870879, 2021-01-15, custom)">
  <metadata
     id="metadata112">
    <rdf:RDF>
      <cc:Work
         rdf:about="">
        <dc:format>image/svg+xml</dc:format>
        <dc:type
           rdf:resource="http://purl.org/dc/dcmitype/StillImage" />
        <dc:title></dc:title>
      </cc:Work>
    </rdf:RDF>
  </metadata>
  <sodipodi:namedview
     pagecolor="#ffffff"
     bordercolor="#666666"
     borderopacity="1"
     objecttolerance="10"
     gridtolerance="10"
     guidetolerance="10"
     inkscape:pageopacity="0"
     inkscape:pageshadow="2"
     inkscape:window-width="2880"
     inkscape:window-height="1526"
     id="namedview110"
     showgrid="false"
     inkscape:zoom="6.8151921"
     inkscape:cx="74.653051"
     inkscape:cy="95.389999"
     inkscape:window-x="-11"
     inkscape:window-y="1608"
     inkscape:window-maximized="1"
     inkscape:current-layer="g82" />
  <defs
     id="defs4">
    <style
       id="style2">
      .cls-1 {
        fill: #fff;
      }
    </style>
  </defs>
  <g
     style="fill:#000000;fill-opacity:1">
    <g
       id="Layer_1-2"
       data-name="Layer 1"
       style="fill:#000000;fill-opacity:1">
      <g
         class="_circle"
         id="g82"
         style="fill:#000000;fill-opacity:1">
        <g
           id="g36"
           style="fill:#ffffff;fill-opacity:1">
          <path
             class="cls-1"
             d="m 37.65,29.48 a 0.51,0.51 0 0 1 -0.06,0.71 0.52,0.52 0 0 1 -0.36,0.11 L 33.56,30 32,31.37 a 0.5,0.5 0 0 1 -0.7,-0.05 l -2,-2.28 a 0.49,0.49 0 0 1 0,-0.7 L 31,27 31.27,23.33 a 0.51,0.51 0 0 1 0.17,-0.34 0.51,0.51 0 0 1 0.71,0.05 z"
             id="path6"
             style="fill:#ffffff;fill-opacity:1" />
          <path
             class="cls-1"
             d="m 43.88,12.91 a 4.26,4.26 0 0 1 1.82,-0.61 2.73,2.73 0 0 1 1.58,0.34 3.14,3.14 0 0 1 1.21,1.26 3.7,3.7 0 0 1 0.42,1.1 2.86,2.86 0 0 1 0,1.2 2.79,2.79 0 0 1 -0.53,1.17 3.83,3.83 0 0 1 -1.22,1 l -1.31,0.74 1.83,3.23 -1.18,0.67 -5,-8.81 z m 2.62,4.35 a 2.22,2.22 0 0 0 0.77,-0.65 1.59,1.59 0 0 0 0.29,-0.74 2.09,2.09 0 0 0 0,-0.71 1.95,1.95 0 0 0 -0.61,-1.07 1.75,1.75 0 0 0 -0.58,-0.37 1.78,1.78 0 0 0 -0.74,-0.09 2.13,2.13 0 0 0 -0.89,0.3 l -1.36,0.77 1.83,3.3 z"
             id="path8"
             style="fill:#ffffff;fill-opacity:1" />
          <path
             class="cls-1"
             d="m 48.53,9.64 1.19,-0.57 4.7,9.77 -1.19,0.57 z"
             id="path10"
             style="fill:#ffffff;fill-opacity:1" />
          <path
             class="cls-1"
             d="m 58.42,17.23 a 3.15,3.15 0 0 1 -1.5,0.23 2.71,2.71 0 0 1 -1.37,-0.56 3.29,3.29 0 0 1 -1,-1.4 3.28,3.28 0 0 1 -0.25,-1.71 2.89,2.89 0 0 1 0.61,-1.41 3.12,3.12 0 0 1 1.25,-0.91 2.47,2.47 0 0 1 2.53,0.33 V 12 l -0.34,-1.17 1.12,-0.45 2.16,5.38 -1.21,0.48 -0.56,-1.4 0.27,0.25 a 1.68,1.68 0 0 1 -0.12,0.43 2.73,2.73 0 0 1 -0.29,0.6 2.86,2.86 0 0 1 -0.52,0.61 2.7,2.7 0 0 1 -0.78,0.5 z M 58.34,16.1 a 2.1,2.1 0 0 0 0.75,-0.5 1.73,1.73 0 0 0 0.41,-0.72 1.91,1.91 0 0 0 0,-0.86 L 59.12,13 A 1.8,1.8 0 0 0 58.48,12.47 1.87,1.87 0 0 0 57.67,12.26 2.18,2.18 0 0 0 56.81,12.42 1.91,1.91 0 0 0 56,13 a 2,2 0 0 0 -0.38,0.91 2,2 0 0 0 0.16,1.09 2,2 0 0 0 0.63,0.85 2,2 0 0 0 0.93,0.41 1.89,1.89 0 0 0 1,-0.16 z"
             id="path12"
             style="fill:#ffffff;fill-opacity:1" />
          <path
             class="cls-1"
             d="M 65.24,14.67 60.85,9.91 62.25,9.48 66,13.74 Z m -0.57,3 L 65.8,8.39 67,8 66,17.3 Z"
             id="path14"
             style="fill:#ffffff;fill-opacity:1" />
          <path
             class="cls-1"
             d="M 71.6,2.37 73.19,2.16 76.91,9.46 76.66,9.41 78,4 78.87,5.74 77,12.3 Z m 4.85,-0.65 1.33,-0.17 4,7.17 h -0.3 L 83,0.85 l 1.47,-0.19 -2.55,11 z"
             id="path16"
             style="fill:#ffffff;fill-opacity:1" />
          <path
             class="cls-1"
             d="M 86.47,3 A 0.68,0.68 0 0 1 86.7,2.47 0.82,0.82 0 0 1 87.23,2.24 0.78,0.78 0 0 1 87.77,2.43 0.67,0.67 0 0 1 88.03,2.94 0.66,0.66 0 0 1 87.81,3.47 0.76,0.76 0 0 1 87.29,3.69 0.81,0.81 0 0 1 86.74,3.51 0.65,0.65 0 0 1 86.47,3 Z m 0.17,2 H 88 l 0.22,5.79 -1.31,0.05 z"
             id="path18"
             style="fill:#ffffff;fill-opacity:1" />
          <path
             class="cls-1"
             d="m 90.8,2.4 h 1.33 v 2.58 h 1.58 V 6 H 92.1 v 4.75 H 90.77 V 6.01 h -1 V 5 h 1 z"
             id="path20"
             style="fill:#ffffff;fill-opacity:1" />
          <path
             class="cls-1"
             d="M 94.84,10.8 95.71,0 97,0.1 96.49,6.47 V 6.23 a 2.44,2.44 0 0 1 1,-0.88 2.75,2.75 0 0 1 1.48,-0.26 1.86,1.86 0 0 1 1.29,0.59 1.65,1.65 0 0 1 0.39,1.32 L 100.31,11.27 99,11.14 99.31,7.31 A 1.12,1.12 0 0 0 99.1,6.53 1,1 0 0 0 98.32,6.17 1.51,1.51 0 0 0 97.4,6.38 1.94,1.94 0 0 0 96.7,7.1 2.57,2.57 0 0 0 96.38,8.2 l -0.22,2.71 z"
             id="path22"
             style="fill:#ffffff;fill-opacity:1" />
          <path
             class="cls-1"
             d="m 105.53,11.92 6.68,-9.27 h 0.08 l 1.92,11.27 -1.51,-0.35 -1.32,-8.94 1.09,-0.4 -5.63,8 z m 3.39,-3.15 3.67,0.86 0.17,1.24 -4.49,-1 z"
             id="path24"
             style="fill:#ffffff;fill-opacity:1" />
          <path
             class="cls-1"
             d="m 116.92,15.13 a 1.88,1.88 0 0 1 -1.1,-0.89 1.7,1.7 0 0 1 -0.11,-1.35 l 1.37,-4.06 1.25,0.42 -1.23,3.62 a 1.31,1.31 0 0 0 0,0.81 1,1 0 0 0 0.65,0.55 1.39,1.39 0 0 0 0.9,0 2,2 0 0 0 0.85,-0.54 2.55,2.55 0 0 0 0.58,-1 l 0.87,-2.56 1.23,0.42 -1.85,5.49 -1.13,-0.38 0.35,-1.39 v 0.28 a 2.17,2.17 0 0 1 -0.71,0.5 2.35,2.35 0 0 1 -0.93,0.21 2.66,2.66 0 0 1 -0.99,-0.13 z"
             id="path26"
             style="fill:#ffffff;fill-opacity:1" />
          <path
             class="cls-1"
             d="m 124.13,17.77 a 2.88,2.88 0 0 1 -1.17,-0.94 2.76,2.76 0 0 1 -0.5,-1.42 3.25,3.25 0 0 1 0.3,-1.64 3.14,3.14 0 0 1 1,-1.35 2.65,2.65 0 0 1 1.42,-0.52 3.25,3.25 0 0 1 2.68,1.1 2.46,2.46 0 0 1 0.56,1.13 l -0.25,0.4 2.57,-5.83 1.19,0.52 -4.37,9.92 -1.19,-0.52 0.58,-1.32 v 0.39 a 3.21,3.21 0 0 1 -1.33,0.37 3.13,3.13 0 0 1 -1.49,-0.29 z m 0.82,-0.85 a 2.08,2.08 0 0 0 0.92,0.19 2.12,2.12 0 0 0 0.83,-0.21 2.06,2.06 0 0 0 0.66,-0.56 l 0.45,-1 a 1.83,1.83 0 0 0 -0.07,-0.84 1.93,1.93 0 0 0 -0.43,-0.73 2,2 0 0 0 -0.74,-0.52 2,2 0 0 0 -1,-0.16 1.86,1.86 0 0 0 -0.93,0.35 2.1,2.1 0 0 0 -0.66,0.85 1.93,1.93 0 0 0 -0.17,1 2.08,2.08 0 0 0 0.36,1 1.83,1.83 0 0 0 0.83,0.63 z"
             id="path28"
             style="fill:#ffffff;fill-opacity:1" />
          <path
             class="cls-1"
             d="m 131.93,14.88 1.17,0.61 -2.68,5.14 -1.17,-0.63 z m 0.9,-1.9 a 0.69,0.69 0 0 1 0.46,-0.35 0.79,0.79 0 0 1 0.57,0.07 0.77,0.77 0 0 1 0.38,0.43 0.71,0.71 0 0 1 0,0.57 0.63,0.63 0 0 1 -0.46,0.35 0.77,0.77 0 0 1 -0.56,-0.06 0.86,0.86 0 0 1 -0.39,-0.43 0.66,0.66 0 0 1 0,-0.56 z"
             id="path30"
             style="fill:#ffffff;fill-opacity:1" />
          <path
             class="cls-1"
             d="m 133.23,18.73 a 3.09,3.09 0 0 1 1.17,-1.13 2.93,2.93 0 0 1 1.55,-0.35 3.6,3.6 0 0 1 2.85,1.75 3,3 0 0 1 0.38,1.53 3.27,3.27 0 0 1 -1.62,2.68 3,3 0 0 1 -1.53,0.38 3.27,3.27 0 0 1 -1.64,-0.51 3.46,3.46 0 0 1 -1.22,-1.18 2.9,2.9 0 0 1 -0.42,-1.52 3.12,3.12 0 0 1 0.48,-1.65 z m 1.12,0.69 a 2.2,2.2 0 0 0 -0.31,1 2,2 0 0 0 0.21,1 1.8,1.8 0 0 0 0.68,0.72 1.78,1.78 0 0 0 1.9,0 2.1,2.1 0 0 0 0.74,-0.74 2.17,2.17 0 0 0 0.31,-1 2,2 0 0 0 -0.19,-1 1.73,1.73 0 0 0 -0.69,-0.73 1.66,1.66 0 0 0 -1,-0.26 2,2 0 0 0 -1,0.28 2.13,2.13 0 0 0 -0.65,0.73 z"
             id="path32"
             style="fill:#ffffff;fill-opacity:1" />
          <path
             class="cls-1"
             d="m 148.53,33.72 a 0.51,0.51 0 0 1 -0.71,0.05 0.5,0.5 0 0 1 -0.16,-0.35 l -0.26,-3.67 -1.55,-1.34 a 0.49,0.49 0 0 1 0,-0.7 l 2,-2.27 a 0.49,0.49 0 0 1 0.7,-0.05 l 1.45,1.34 3.67,-0.26 a 0.52,0.52 0 0 1 0.36,0.12 0.51,0.51 0 0 1 0,0.71 z"
             id="path34"
             style="fill:#ffffff;fill-opacity:1" />
        </g>
        <g
           id="g68"
           style="fill:#ffffff;fill-opacity:1">
          <path
             class="cls-1"
             d="m 31.34,170.29 a 0.51,0.51 0 0 1 -0.71,0.06 0.49,0.49 0 0 1 -0.17,-0.34 L 30.16,166.35 28.6,165 a 0.51,0.51 0 0 1 -0.06,-0.71 L 30.48,162 a 0.49,0.49 0 0 1 0.7,-0.06 l 1.56,1.32 3.66,-0.3 a 0.48,0.48 0 0 1 0.37,0.11 0.5,0.5 0 0 1 0.06,0.7 z"
             id="path38"
             style="fill:#ffffff;fill-opacity:1" />
          <path
             class="cls-1"
             d="m 46.55,168.29 a 4.29,4.29 0 0 1 1.42,1.3 2.74,2.74 0 0 1 0.48,1.54 3.13,3.13 0 0 1 -0.52,1.67 3.77,3.77 0 0 1 -0.77,0.92 2.9,2.9 0 0 1 -1,0.59 2.85,2.85 0 0 1 -1.28,0.11 3.8,3.8 0 0 1 -1.49,-0.57 l -1.28,-0.78 -1.93,3.17 -1.18,-0.71 5.26,-8.64 z M 44,172.7 a 2.26,2.26 0 0 0 0.94,0.36 1.59,1.59 0 0 0 0.79,-0.11 2,2 0 0 0 0.6,-0.37 2.09,2.09 0 0 0 0.4,-0.46 2.15,2.15 0 0 0 0.24,-0.6 1.73,1.73 0 0 0 0,-0.68 1.83,1.83 0 0 0 -0.29,-0.7 2.23,2.23 0 0 0 -0.69,-0.62 l -1.34,-0.82 -2,3.23 z"
             id="path40"
             style="fill:#ffffff;fill-opacity:1" />
          <path
             class="cls-1"
             d="m 51.19,170.11 1.16,0.61 -5,9.61 -1.16,-0.61 z"
             id="path42"
             style="fill:#ffffff;fill-opacity:1" />
          <path
             class="cls-1"
             d="m 51.8,182.62 a 3,3 0 0 1 -1.21,-0.92 2.57,2.57 0 0 1 -0.56,-1.37 3.36,3.36 0 0 1 0.31,-1.67 3.42,3.42 0 0 1 1,-1.38 2.86,2.86 0 0 1 1.44,-0.54 3,3 0 0 1 1.52,0.26 2.46,2.46 0 0 1 1.11,0.89 2.54,2.54 0 0 1 0.43,1.15 l -0.17,0.15 0.61,-1.06 1.1,0.49 -2.34,5.3 -1.19,-0.53 0.61,-1.38 v 0.37 a 1.62,1.62 0 0 1 -0.39,0.22 3.11,3.11 0 0 1 -0.63,0.2 2.6,2.6 0 0 1 -1.7,-0.18 z m 0.75,-0.85 a 2,2 0 0 0 0.88,0.19 1.63,1.63 0 0 0 0.81,-0.21 1.82,1.82 0 0 0 0.64,-0.57 l 0.46,-1 a 1.93,1.93 0 0 0 -0.06,-0.83 2,2 0 0 0 -1.13,-1.22 1.81,1.81 0 0 0 -1,-0.16 1.72,1.72 0 0 0 -0.91,0.36 2.14,2.14 0 0 0 -0.67,0.85 2,2 0 0 0 -0.16,1.05 1.82,1.82 0 0 0 0.36,0.95 1.89,1.89 0 0 0 0.78,0.59 z"
             id="path44"
             style="fill:#ffffff;fill-opacity:1" />
          <path
             class="cls-1"
             d="m 57.17,187.67 6.4,-6.87 1.14,0.39 -6.32,6.9 z m 2.26,-2.13 -0.76,-6.43 1.4,0.48 0.52,5.66 z"
             id="path46"
             style="fill:#ffffff;fill-opacity:1" />
          <path
             class="cls-1"
             d="m 70.32,178.49 1.58,0.26 1.42,8.07 -0.22,-0.12 2.83,-4.8 0.32,1.91 -3.68,5.75 z m 4.82,0.8 1.33,0.22 1.69,8 -0.28,-0.1 3.81,-7 1.43,0.24 -5.64,9.74 z"
             id="path48"
             style="fill:#ffffff;fill-opacity:1" />
          <path
             class="cls-1"
             d="m 83.88,184.72 1.31,0.09 -0.39,5.79 -1.31,-0.09 z m 0.06,-2.1 a 0.63,0.63 0 0 1 0.28,-0.5 0.8,0.8 0 0 1 0.55,-0.17 0.76,0.76 0 0 1 0.51,0.24 0.69,0.69 0 0 1 0.21,0.54 0.66,0.66 0 0 1 -0.28,0.5 0.78,0.78 0 0 1 -0.54,0.17 0.77,0.77 0 0 1 -0.52,-0.24 0.61,0.61 0 0 1 -0.21,-0.54 z"
             id="path50"
             style="fill:#ffffff;fill-opacity:1" />
          <path
             class="cls-1"
             d="m 88,182.39 h 1.33 v 2.57 h 1.58 v 1 h -1.58 l -0.09,4.75 H 87.91 L 88,185.97 h -1.05 v -1 h 1 z"
             id="path52"
             style="fill:#ffffff;fill-opacity:1" />
          <path
             class="cls-1"
             d="M 92.66,190.78 92.11,180 l 1.28,-0.06 0.33,6.37 v -0.24 a 2.43,2.43 0 0 1 0.85,-1 2.58,2.58 0 0 1 1.43,-0.45 1.89,1.89 0 0 1 1.36,0.41 1.62,1.62 0 0 1 0.6,1.22 l 0.22,4.28 -1.31,0.07 -0.2,-3.83 a 1.17,1.17 0 0 0 -0.31,-0.75 1,1 0 0 0 -0.82,-0.26 1.62,1.62 0 0 0 -0.89,0.33 2,2 0 0 0 -0.6,0.81 2.59,2.59 0 0 0 -0.17,1.13 l 0.14,2.72 z"
             id="path54"
             style="fill:#ffffff;fill-opacity:1" />
          <path
             class="cls-1"
             d="m 104.84,189.79 2.27,-11.2 h 0.09 l 6.39,9.47 -1.53,0.31 -4.87,-7.61 0.82,-0.81 -1.85,9.59 z m 1.79,-4.27 3.7,-0.73 0.67,1.07 -4.52,0.89 z"
             id="path56"
             style="fill:#ffffff;fill-opacity:1" />
          <path
             class="cls-1"
             d="m 117.41,187.15 a 1.82,1.82 0 0 1 -1.4,-0.08 1.76,1.76 0 0 1 -0.88,-1 l -1.23,-4.1 1.26,-0.38 1.1,3.66 a 1.31,1.31 0 0 0 0.49,0.65 1,1 0 0 0 0.84,0.07 1.39,1.39 0 0 0 0.74,-0.52 2.14,2.14 0 0 0 0.37,-0.93 2.54,2.54 0 0 0 -0.1,-1.15 l -0.78,-2.59 1.25,-0.37 1.67,5.55 -1.14,0.34 -0.52,-1.33 0.16,0.23 a 2.3,2.3 0 0 1 -0.29,0.82 2.64,2.64 0 0 1 -0.63,0.71 2.61,2.61 0 0 1 -0.91,0.42 z"
             id="path58"
             style="fill:#ffffff;fill-opacity:1" />
          <path
             class="cls-1"
             d="m 125.55,184.28 a 2.68,2.68 0 0 1 -1.49,0.19 2.86,2.86 0 0 1 -1.37,-0.63 3.39,3.39 0 0 1 -1,-1.37 3.21,3.21 0 0 1 -0.24,-1.69 2.8,2.8 0 0 1 0.62,-1.38 3.32,3.32 0 0 1 1.3,-0.91 3,3 0 0 1 1.32,-0.21 2.44,2.44 0 0 1 1.21,0.39 l 0.1,0.45 -2.37,-5.91 1.21,-0.48 4,10.05 -1.21,0.49 -0.54,-1.34 0.28,0.28 a 3.22,3.22 0 0 1 -0.67,1.21 3,3 0 0 1 -1.15,0.86 z m 0,-1.17 a 2.06,2.06 0 0 0 1.2,-1.26 1.94,1.94 0 0 0 0.07,-0.87 l -0.41,-1 a 1.62,1.62 0 0 0 -0.65,-0.54 2,2 0 0 0 -0.82,-0.21 2.2,2.2 0 0 0 -0.89,0.17 1.88,1.88 0 0 0 -0.8,0.59 1.93,1.93 0 0 0 -0.41,0.92 2.12,2.12 0 0 0 0.77,1.91 1.94,1.94 0 0 0 0.94,0.41 1.8,1.8 0 0 0 0.97,-0.12 z"
             id="path60"
             style="fill:#ffffff;fill-opacity:1" />
          <path
             class="cls-1"
             d="m 127.75,174.59 a 0.64,0.64 0 0 1 0,-0.57 0.74,0.74 0 0 1 0.39,-0.42 0.75,0.75 0 0 1 0.57,0 0.64,0.64 0 0 1 0.44,0.36 0.66,0.66 0 0 1 0,0.58 0.75,0.75 0 0 1 -0.39,0.41 0.8,0.8 0 0 1 -0.57,0.05 0.63,0.63 0 0 1 -0.44,-0.41 z m 1,1.86 1.18,-0.57 2.51,5.23 -1.19,0.57 z"
             id="path62"
             style="fill:#ffffff;fill-opacity:1" />
          <path
             class="cls-1"
             d="m 132.85,177.65 a 3,3 0 0 1 0.05,-3.09 3.39,3.39 0 0 1 1.26,-1.17 3.32,3.32 0 0 1 1.64,-0.46 3.1,3.1 0 0 1 1.52,0.42 3.32,3.32 0 0 1 1.53,2.74 3.06,3.06 0 0 1 -0.43,1.52 3.29,3.29 0 0 1 -1.25,1.17 3.41,3.41 0 0 1 -1.64,0.47 2.8,2.8 0 0 1 -1.52,-0.38 3,3 0 0 1 -1.16,-1.22 z M 134,177 a 2,2 0 0 0 0.72,0.76 1.88,1.88 0 0 0 0.94,0.31 1.88,1.88 0 0 0 1.67,-0.94 2,2 0 0 0 0.23,-1 2.1,2.1 0 0 0 -1.93,-2.08 1.76,1.76 0 0 0 -1,0.24 1.71,1.71 0 0 0 -0.7,0.71 2.09,2.09 0 0 0 0.05,2 z"
             id="path64"
             style="fill:#ffffff;fill-opacity:1" />
          <path
             class="cls-1"
             d="m 153.2,167.61 a 0.5,0.5 0 0 1 -0.07,0.7 0.56,0.56 0 0 1 -0.37,0.11 l -3.66,-0.37 -1.58,1.3 a 0.5,0.5 0 0 1 -0.7,-0.08 l -1.9,-2.31 a 0.51,0.51 0 0 1 0.07,-0.71 l 1.58,-1.29 0.37,-3.66 a 0.48,0.48 0 0 1 0.18,-0.34 0.5,0.5 0 0 1 0.7,0.07 z"
             id="path66"
             style="fill:#ffffff;fill-opacity:1" />
        </g>
        <g
           id="g74"
           style="fill:#ffffff;fill-opacity:1">
          <path
             class="cls-1"
             d="m 157.46,156.57 -0.74,-0.67 a 89.49,89.49 0 0 0 2.39,-117.67 l 0.77,-0.64 a 90.49,90.49 0 0 1 -2.42,119 z"
             id="path72"
             style="fill:#ffffff;fill-opacity:1" />
        </g>
        <g
           id="g80"
           style="fill:#ffffff;fill-opacity:1">
          <path
             class="cls-1"
             d="m 23.54,156.57 a 90.49,90.49 0 0 1 -2.42,-119 l 0.77,0.64 a 89.49,89.49 0 0 0 2.39,117.69 z"
             id="path78"
             style="fill:#ffffff;fill-opacity:1" />
        </g>
      </g>
      <g
         class="_graf"
         id="g104"
         style="fill:#ffffff;fill-opacity:1">
        <rect
           class="cls-1"
           x="56.27"
           y="88.889999"
           width="4.5700002"
           height="13.64"
           id="rect84"
           style="fill:#ffffff;fill-opacity:1" />
        <rect
           class="cls-1"
           x="120.31"
           y="88.889999"
           width="4.5700002"
           height="13.64"
           id="rect86"
           style="fill:#ffffff;fill-opacity:1" />
        <rect
           class="cls-1"
           x="102.01"
           y="88.889999"
           width="4.5700002"
           height="13.64"
           id="rect88"
           style="fill:#ffffff;fill-opacity:1" />
        <rect
           class="cls-1"
           x="83.720001"
           y="88.889999"
           width="4.5700002"
           height="13.64"
           id="rect90"
           style="fill:#ffffff;fill-opacity:1" />
        <rect
           class="cls-1"
           x="65.419998"
           y="82.07"
           width="4.5700002"
           height="27.26"
           id="rect92"
           style="fill:#ffffff;fill-opacity:1" />
        <rect
           class="cls-1"
           x="92.870003"
           y="82.07"
           width="4.5700002"
           height="27.26"
           id="rect94"
           style="fill:#ffffff;fill-opacity:1" />
        <rect
           class="cls-1"
           x="111.3"
           y="75.25"
           width="4.5700002"
           height="40.889999"
           id="rect96"
           style="fill:#ffffff;fill-opacity:1" />
        <rect
           class="cls-1"
           x="74.580002"
           y="68.43"
           width="4.5700002"
           height="54.529999"
           id="rect98"
           style="fill:#ffffff;fill-opacity:1" />
        <rect
           class="cls-1"
           x="47.130001"
           y="93.43"
           width="4.5700002"
           height="4.5500002"
           id="rect100"
           style="fill:#ffffff;fill-opacity:1" />
        <rect
           class="cls-1"
           x="129.46001"
           y="93.43"
           width="4.5700002"
           height="4.5500002"
           id="rect102"
           style="fill:#ffffff;fill-opacity:1" />
      </g>
    </g>
  </g>
</svg>
