<svg xmlns="http://www.w3.org/2000/svg" width="40" height="40" viewBox="0 0 40 40"><g><g><g><path fill="#101010" d="M10 40C4.477 40 0 35.523 0 30V10C0 4.477 4.477 0 10 0h20c5.523 0 10 4.477 10 10v20c0 5.523-4.477 10-10 10z"/></g><g><g><g><path fill="#fff" d="M22.184 11.978v3.807c0 .328.026.57.08.724.087.239.285.358.594.358.335 0 .68-.2 1.036-.6v.532h.916v-4.821h-.916v3.681c-.2.277-.392.416-.573.416-.121 0-.192-.071-.212-.213a2.43 2.43 0 0 1-.01-.338v-3.546z"/></g><g><path fill="#fff" d="M19.657 13.37c0-.445.145-.667.433-.667.288 0 .433.222.433.666v2.03c0 .45-.145.676-.433.676-.289 0-.433-.226-.433-.677zm.433 3.497c.463 0 .819-.164 1.067-.493.188-.238.282-.618.282-1.14v-1.69c0-.516-.094-.893-.282-1.131-.248-.329-.604-.493-1.067-.493-.45 0-.802.164-1.057.493-.188.238-.282.615-.282 1.13v1.691c0 .516.094.896.282 1.14.255.329.607.493 1.057.493z"/></g><g><path fill="#fff" d="M17.524 16.8v-2.62l1.217-3.854h-1.026l-.685 2.54-.714-2.54h-1.067a79.9 79.9 0 0 0 .654 1.806c.315.89.52 1.572.614 2.049v2.618h1.007z"/></g><g><path fill="#fff" d="M24.84 23.524v.841c0 .445.155.666.464.666.221 0 .355-.115.402-.347.013-.065.02-.261.02-.59h.916v.126c0 .316-.007.502-.02.56-.02.175-.09.348-.211.522-.242.341-.604.512-1.087.512-.463 0-.826-.164-1.087-.493-.195-.238-.292-.611-.292-1.12v-1.672c0-.509.094-.882.281-1.12.262-.33.621-.493 1.077-.493.45 0 .806.164 1.067.492.181.239.272.612.272 1.121v.995zm-1.6.793c0 .47-.03.792-.09.966-.114.354-.353.531-.715.531-.322 0-.634-.177-.936-.531v.464h-.896V19.34h.896v2.096c.288-.347.6-.521.936-.521.362 0 .6.18.715.54.06.168.09.487.09.957zm-4.318 1.43v-.522c-.362.392-.704.59-1.026.59-.31 0-.504-.12-.584-.358-.054-.155-.08-.39-.08-.706v-3.778h.895v3.518c0 .206.004.318.01.338.02.135.09.202.212.202.18 0 .372-.135.574-.406v-3.652h.895v4.774zm-2.898-5.498v5.498h-1.007v-5.498h-1.056v-.908h3.14v.908zm10.895-1.933a1.881 1.881 0 0 0-1.032-.454c-1.234-.128-3.096-.193-5.585-.193-2.49 0-4.349.064-5.576.193a1.863 1.863 0 0 0-1.037.454c-.296.258-.49.577-.584.957-.175.747-.262 1.874-.262 3.382 0 1.533.088 2.66.262 3.382.087.38.28.698.579.956a1.82 1.82 0 0 0 1.031.445c1.235.135 3.097.203 5.586.203 2.49 0 4.352-.068 5.586-.203a1.796 1.796 0 0 0 1.027-.445c.295-.258.49-.576.584-.956.174-.748.261-1.875.261-3.382 0-1.533-.087-2.66-.261-3.382a1.756 1.756 0 0 0-.579-.957z"/></g><g><path fill="#fff" d="M25.293 21.698c-.302 0-.452.22-.452.657v.445h.905v-.445c0-.438-.15-.657-.453-.657z"/></g><g><path fill="#fff" d="M21.952 21.698c-.154 0-.305.07-.453.213v2.908c.148.142.299.213.453.213.262 0 .393-.216.393-.648v-2.038c0-.432-.131-.648-.393-.648z"/></g></g></g></g></g></svg>