<svg xmlns="http://www.w3.org/2000/svg" width="180.99" height="190.78" viewBox="0 0 180.99 190.78">
  <defs>
    <style>
      .cls-1 {
        fill: #fff;
      }
    </style>
  </defs>
  <g id="Layer_2" data-name="Layer 2">
    <g id="Layer_1-2" data-name="Layer 1">
      <g id="Layer_2-2" data-name="Layer 2">
        <g id="Layer_1-2-2" data-name="Layer 1-2">
          <g class="_circle">
            <g>
              <path class="cls-1" d="M37.65,29.48a.49.49,0,0,1-.07.7.46.46,0,0,1-.35.12L33.56,30,32,31.37a.49.49,0,0,1-.7-.05L29.3,29a.48.48,0,0,1,0-.69h0L31,27l.27-3.67a.5.5,0,0,1,.88-.29Z"/>
              <path class="cls-1" d="M43.87,12.91a4.23,4.23,0,0,1,1.83-.61,2.74,2.74,0,0,1,1.58.34,3.19,3.19,0,0,1,1.21,1.26,3.85,3.85,0,0,1,.42,1.1,3,3,0,0,1,0,1.2,2.9,2.9,0,0,1-.53,1.17,3.82,3.82,0,0,1-1.23,1l-1.3.74,1.83,3.23L46.5,23l-5-8.81Zm2.63,4.35a2.29,2.29,0,0,0,.77-.65,1.77,1.77,0,0,0,.29-.74,2.12,2.12,0,0,0,0-.71,2.78,2.78,0,0,0-.21-.57,2,2,0,0,0-.4-.5,1.79,1.79,0,0,0-.58-.37,1.86,1.86,0,0,0-.74-.09,2.14,2.14,0,0,0-.89.3l-1.36.77L45.21,18Z"/>
              <path class="cls-1" d="M48.53,9.64l1.19-.57,4.69,9.77-1.18.57Z"/>
              <path class="cls-1" d="M58.42,17.23a3.1,3.1,0,0,1-1.5.23,2.73,2.73,0,0,1-1.37-.56,3.18,3.18,0,0,1-1-1.4,3.15,3.15,0,0,1-.25-1.71,2.84,2.84,0,0,1,.61-1.41,3.07,3.07,0,0,1,1.25-.91,2.47,2.47,0,0,1,2.53.33V12l-.34-1.17,1.12-.45,2.16,5.38-1.21.48-.56-1.4.27.25a2.11,2.11,0,0,1-.12.43,3.32,3.32,0,0,1-.29.6,3.05,3.05,0,0,1-.52.61A2.8,2.8,0,0,1,58.42,17.23Zm-.08-1.13a2.19,2.19,0,0,0,.75-.5,1.78,1.78,0,0,0,.41-.72,2.08,2.08,0,0,0,0-.86l-.38-1a1.82,1.82,0,0,0-.64-.53,1.91,1.91,0,0,0-.81-.21,2.09,2.09,0,0,0-.86.16A1.89,1.89,0,0,0,56,13a2,2,0,0,0-.22,2,2,2,0,0,0,.63.85,2,2,0,0,0,.93.41A1.92,1.92,0,0,0,58.34,16.1Z"/>
              <path class="cls-1" d="M65.24,14.67,60.85,9.91l1.4-.43L66,13.74Zm-.57,3L65.8,8.39,67,8l-1,9.3Z"/>
              <path class="cls-1" d="M71.6,2.37l1.59-.21,3.72,7.3-.25-.05L78,4l.87,1.74L77,12.3Zm4.85-.65,1.33-.17,4,7.17h-.3L83,.85,84.47.66l-2.55,11Z"/>
              <path class="cls-1" d="M86.47,3a.64.64,0,0,1,.23-.53.8.8,0,0,1,.53-.23.78.78,0,0,1,.54.19.71.71,0,0,1,.26.51.75.75,0,0,1-.74.75.78.78,0,0,1-.55-.18A.63.63,0,0,1,86.47,3Zm.17,2H88l.22,5.79-1.31.05Z"/>
              <path class="cls-1" d="M90.8,2.4h1.33V5h1.58V6H92.1v4.75H90.77V6h-1V5h1Z"/>
              <path class="cls-1" d="M94.84,10.8,95.71,0,97,.1l-.51,6.37V6.23a2.37,2.37,0,0,1,1-.88A2.79,2.79,0,0,1,99,5.09a1.87,1.87,0,0,1,1.29.59A1.7,1.7,0,0,1,100.65,7l-.34,4.27L99,11.14l.31-3.83a1.13,1.13,0,0,0-.21-.78,1,1,0,0,0-.78-.36,1.46,1.46,0,0,0-.92.21,1.8,1.8,0,0,0-.7.72,2.5,2.5,0,0,0-.32,1.1l-.22,2.71Z"/>
              <path class="cls-1" d="M105.53,11.92l6.68-9.27h.08l1.92,11.27-1.51-.35-1.32-8.94,1.09-.4-5.63,8Zm3.39-3.15,3.67.86.17,1.24-4.49-1Z"/>
              <path class="cls-1" d="M116.92,15.13a1.84,1.84,0,0,1-1.1-.89,1.64,1.64,0,0,1-.11-1.35l1.37-4.06,1.25.42-1.23,3.62a1.25,1.25,0,0,0,0,.81,1,1,0,0,0,.65.55,1.39,1.39,0,0,0,.9,0,2,2,0,0,0,.85-.54,2.71,2.71,0,0,0,.58-1l.87-2.56,1.23.42L120.33,16l-1.13-.38.35-1.39v.28a2.47,2.47,0,0,1-.71.5,2.78,2.78,0,0,1-1.92.08Z"/>
              <path class="cls-1" d="M124.13,17.77a2.77,2.77,0,0,1-1.68-2.36,3.32,3.32,0,0,1,.31-1.64,3.11,3.11,0,0,1,1-1.35,2.59,2.59,0,0,1,1.42-.52,3.27,3.27,0,0,1,2.68,1.1,2.51,2.51,0,0,1,.56,1.13l-.25.4,2.57-5.83,1.19.52-4.37,9.92-1.19-.52L127,17.3v.39a3.31,3.31,0,0,1-1.33.37A3,3,0,0,1,124.13,17.77Zm.82-.85a2,2,0,0,0,1.75,0,2.21,2.21,0,0,0,.66-.56l.45-1a2,2,0,0,0-.07-.84,2.07,2.07,0,0,0-.43-.73,2,2,0,0,0-.74-.52,2,2,0,0,0-1-.16,1.83,1.83,0,0,0-.93.35,2,2,0,0,0-.66.85,1.82,1.82,0,0,0-.17,1,2,2,0,0,0,.36,1,1.8,1.8,0,0,0,.83.63Z"/>
              <path class="cls-1" d="M131.93,14.88l1.17.61-2.68,5.14L129.25,20Zm.9-1.9a.66.66,0,0,1,.46-.35.81.81,0,0,1,.57.07.84.84,0,0,1,.38.43.71.71,0,0,1,0,.57.66.66,0,0,1-.46.35.77.77,0,0,1-.56-.06.82.82,0,0,1-.39-.43.61.61,0,0,1,0-.56Z"/>
              <path class="cls-1" d="M133.23,18.73a3.1,3.1,0,0,1,1.17-1.13,2.88,2.88,0,0,1,1.55-.35A3.6,3.6,0,0,1,138.8,19a3,3,0,0,1,.38,1.53,3.27,3.27,0,0,1-1.62,2.68,3,3,0,0,1-1.53.38,3.26,3.26,0,0,1-1.64-.51,3.45,3.45,0,0,1-1.22-1.18,2.81,2.81,0,0,1-.42-1.52A3,3,0,0,1,133.23,18.73Zm1.12.69a2.1,2.1,0,0,0-.31,1,1.92,1.92,0,0,0,.21,1,1.75,1.75,0,0,0,.68.72,1.76,1.76,0,0,0,1.9,0,2.1,2.1,0,0,0,.74-.74,2.21,2.21,0,0,0,.31-1,2.15,2.15,0,0,0-.19-1,1.8,1.8,0,0,0-.69-.73,1.69,1.69,0,0,0-1-.26,2,2,0,0,0-.95.28,2,2,0,0,0-.7.73Z"/>
              <path class="cls-1" d="M148.53,33.72a.51.51,0,0,1-.71.05.44.44,0,0,1-.16-.35l-.26-3.67-1.55-1.34a.48.48,0,0,1,0-.69h0l2-2.27a.49.49,0,0,1,.69-.06h0L150,26.73l3.67-.26a.52.52,0,0,1,.36.12.51.51,0,0,1,0,.71Z"/>
            </g>
            <g>
              <path class="cls-1" d="M31.34,170.29a.51.51,0,0,1-.71.06.47.47,0,0,1-.17-.34l-.3-3.66L28.6,165a.51.51,0,0,1-.06-.71L30.48,162a.49.49,0,0,1,.69-.07h0l1.56,1.32,3.66-.3a.56.56,0,0,1,.37.11.51.51,0,0,1,.06.7Z"/>
              <path class="cls-1" d="M46.55,168.29a4.31,4.31,0,0,1,1.42,1.3,2.8,2.8,0,0,1,.48,1.54,3.31,3.31,0,0,1-.52,1.67,3.81,3.81,0,0,1-.77.92,3,3,0,0,1-1,.59,2.93,2.93,0,0,1-1.28.11,3.76,3.76,0,0,1-1.49-.57l-1.28-.78-1.93,3.17L39,175.53l5.26-8.64ZM44,172.7a2.25,2.25,0,0,0,.94.36,1.65,1.65,0,0,0,.79-.11,2.07,2.07,0,0,0,.6-.37,1.88,1.88,0,0,0,.64-1.06,1.94,1.94,0,0,0,0-.68,2,2,0,0,0-.29-.7,2.4,2.4,0,0,0-.69-.62l-1.34-.82-2,3.23Z"/>
              <path class="cls-1" d="M51.19,170.11l1.16.61-5,9.61-1.16-.61Z"/>
              <path class="cls-1" d="M51.8,182.62a2.9,2.9,0,0,1-1.21-.92,2.48,2.48,0,0,1-.56-1.37,3.22,3.22,0,0,1,.31-1.67,3.35,3.35,0,0,1,1-1.38,2.88,2.88,0,0,1,1.44-.54,3,3,0,0,1,1.52.26,2.48,2.48,0,0,1,1.11.89,2.64,2.64,0,0,1,.43,1.15l-.17.15.61-1.06,1.1.49L55,183.92l-1.19-.53.61-1.38v.37a1.5,1.5,0,0,1-.39.22,3.06,3.06,0,0,1-.63.2,2.62,2.62,0,0,1-1.7-.18Zm.75-.85a2,2,0,0,0,.88.19,1.66,1.66,0,0,0,.81-.21,1.94,1.94,0,0,0,.64-.57l.46-1a1.94,1.94,0,0,0-.06-.83,2,2,0,0,0-1.13-1.22,1.83,1.83,0,0,0-1-.16,1.77,1.77,0,0,0-.92.36,2.11,2.11,0,0,0-.66.85,1.9,1.9,0,0,0-.16,1,1.77,1.77,0,0,0,.36,1,1.82,1.82,0,0,0,.78.59Z"/>
              <path class="cls-1" d="M57.17,187.67l6.4-6.87,1.14.39-6.32,6.9Zm2.26-2.13-.76-6.43,1.4.48.52,5.66Z"/>
              <path class="cls-1" d="M70.32,178.49l1.58.26,1.42,8.07-.22-.12,2.83-4.8.32,1.91-3.68,5.75Zm4.82.8,1.33.22,1.69,8-.28-.1,3.81-7,1.43.24-5.64,9.74Z"/>
              <path class="cls-1" d="M83.88,184.72l1.31.09-.39,5.79-1.31-.09Zm.06-2.1a.61.61,0,0,1,.28-.5.82.82,0,0,1,.55-.17.79.79,0,0,1,.51.24.72.72,0,0,1,.21.54.71.71,0,0,1-.28.5.83.83,0,0,1-.54.17.77.77,0,0,1-.52-.24A.59.59,0,0,1,83.94,182.62Z"/>
              <path class="cls-1" d="M88,182.39h1.33V185h1.58v1H89.33l-.09,4.75H87.91L88,186H87v-1h1Z"/>
              <path class="cls-1" d="M92.66,190.78,92.11,180l1.28-.06.33,6.37v-.24a2.42,2.42,0,0,1,.85-1,2.6,2.6,0,0,1,1.43-.45,1.92,1.92,0,0,1,1.36.41,1.66,1.66,0,0,1,.6,1.22l.22,4.28-1.31.07-.2-3.83a1.17,1.17,0,0,0-.31-.75,1,1,0,0,0-.82-.26,1.56,1.56,0,0,0-.89.33,1.86,1.86,0,0,0-.6.81,2.58,2.58,0,0,0-.17,1.13l.14,2.72Z"/>
              <path class="cls-1" d="M104.84,189.79l2.27-11.2h.09l6.39,9.47-1.53.31-4.87-7.61L108,180l-1.85,9.59Zm1.79-4.27,3.7-.73.67,1.07-4.52.89Z"/>
              <path class="cls-1" d="M117.41,187.15a1.84,1.84,0,0,1-1.4-.08,1.73,1.73,0,0,1-.88-1L113.9,182l1.26-.38,1.1,3.66a1.26,1.26,0,0,0,.49.65,1,1,0,0,0,.84.07,1.48,1.48,0,0,0,.74-.52,2.28,2.28,0,0,0,.37-.93,2.63,2.63,0,0,0-.1-1.15l-.78-2.59,1.25-.37,1.67,5.55-1.14.34-.52-1.33.16.23a2.59,2.59,0,0,1-.29.82,2.85,2.85,0,0,1-.63.71A2.69,2.69,0,0,1,117.41,187.15Z"/>
              <path class="cls-1" d="M125.55,184.28a2.72,2.72,0,0,1-1.49.19,2.79,2.79,0,0,1-1.37-.63,3.32,3.32,0,0,1-1-1.37,3.07,3.07,0,0,1-.24-1.69,2.72,2.72,0,0,1,.62-1.38,3.3,3.3,0,0,1,1.3-.91,3,3,0,0,1,1.32-.21,2.51,2.51,0,0,1,1.21.39l.1.45-2.37-5.91,1.21-.48,4,10.05-1.21.49-.54-1.34.28.28a3.42,3.42,0,0,1-.67,1.21A3,3,0,0,1,125.55,184.28Zm0-1.17a2.08,2.08,0,0,0,1.2-1.26,2.13,2.13,0,0,0,.07-.87l-.41-1a1.78,1.78,0,0,0-.65-.54,2,2,0,0,0-.82-.21,2.08,2.08,0,0,0-.89.17,2,2,0,0,0-1.21,1.51,2.12,2.12,0,0,0,.77,1.91,1.9,1.9,0,0,0,.94.41,1.8,1.8,0,0,0,1-.12Z"/>
              <path class="cls-1" d="M127.75,174.59a.64.64,0,0,1,0-.57.72.72,0,0,1,.4-.42.71.71,0,0,1,.57,0,.69.69,0,0,1,.44.36.66.66,0,0,1,0,.58.82.82,0,0,1-.39.41.8.8,0,0,1-.57.05A.64.64,0,0,1,127.75,174.59Zm1,1.86,1.18-.57,2.51,5.23-1.19.57Z"/>
              <path class="cls-1" d="M132.85,177.65a3,3,0,0,1,.05-3.09,3.64,3.64,0,0,1,2.9-1.63,3.16,3.16,0,0,1,1.52.42,3.34,3.34,0,0,1,1.53,2.74,3.11,3.11,0,0,1-.43,1.52,3.34,3.34,0,0,1-1.25,1.17,3.53,3.53,0,0,1-1.64.47,2.78,2.78,0,0,1-1.52-.38A3,3,0,0,1,132.85,177.65ZM134,177a1.88,1.88,0,0,0,.72.76,1.85,1.85,0,0,0,.94.31,1.9,1.9,0,0,0,1.67-.94,2,2,0,0,0,.23-1,2.11,2.11,0,0,0-1.93-2.08,1.75,1.75,0,0,0-1,.24,1.65,1.65,0,0,0-.7.71,2.06,2.06,0,0,0,0,2Z"/>
              <path class="cls-1" d="M153.2,167.61a.5.5,0,0,1-.07.7.56.56,0,0,1-.37.11l-3.66-.37-1.58,1.3a.5.5,0,0,1-.7-.08l-1.9-2.31a.5.5,0,0,1,.07-.71l1.58-1.29.37-3.66a.51.51,0,0,1,.17-.34.52.52,0,0,1,.71.07Z"/>
            </g>
            <path class="cls-1" d="M157.46,156.57l-.74-.68a89.51,89.51,0,0,0,2.39-117.66l.77-.64a90.52,90.52,0,0,1-2.42,119Z"/>
            <path class="cls-1" d="M23.54,156.57a90.51,90.51,0,0,1-2.43-119l.77.64a89.49,89.49,0,0,0,2.4,117.66Z"/>
          </g>
          <g class="_graf">
            <rect class="cls-1" x="56.27" y="88.89" width="4.57" height="13.64"/>
            <rect class="cls-1" x="120.31" y="88.89" width="4.57" height="13.64"/>
            <rect class="cls-1" x="102.01" y="88.89" width="4.57" height="13.64"/>
            <rect class="cls-1" x="83.72" y="88.89" width="4.57" height="13.64"/>
            <rect class="cls-1" x="65.42" y="82.07" width="4.57" height="27.26"/>
            <rect class="cls-1" x="92.87" y="82.07" width="4.57" height="27.26"/>
            <rect class="cls-1" x="111.3" y="75.25" width="4.57" height="40.89"/>
            <rect class="cls-1" x="74.58" y="68.43" width="4.57" height="54.53"/>
            <rect class="cls-1" x="47.13" y="93.43" width="4.57" height="4.55"/>
            <rect class="cls-1" x="129.46" y="93.43" width="4.57" height="4.55"/>
          </g>
        </g>
      </g>
    </g>
  </g>
</svg>
