<svg xmlns="http://www.w3.org/2000/svg" width="181" height="193.8" viewBox="0 0 181 193.8">
  <defs>
    <style>
      .cls-1 {
        fill: #fff;
      }
    </style>
  </defs>
  <g id="Layer_2" data-name="Layer 2">
    <g id="Layer_1-2" data-name="Layer 1">
      <g class="_circle">
        <g>
          <path class="cls-1" d="M18.37,161.9a.66.66,0,0,1-.91-.09.71.71,0,0,1-.14-.47l.45-4.71-1.67-2a.65.65,0,0,1,.08-.91l3-2.45a.64.64,0,0,1,.9.08l1.68,2,4.71.45a.64.64,0,0,1,.35,1.13Z"/>
          <path class="cls-1" d="M38.13,162.32a5.53,5.53,0,0,1,1.59,1.9,3.57,3.57,0,0,1,.35,2,4.11,4.11,0,0,1-.94,2,4.91,4.91,0,0,1-1.14,1,3.66,3.66,0,0,1-1.43.58,3.73,3.73,0,0,1-1.65-.08,4.88,4.88,0,0,1-1.8-1l-1.5-1.21-3,3.71-1.36-1.09,8.17-10.13Zm-4,5.2a2.91,2.91,0,0,0,1.14.61,2,2,0,0,0,1,0,2.62,2.62,0,0,0,.83-.37,2.77,2.77,0,0,0,.59-.52,3.14,3.14,0,0,0,.41-.72,2.11,2.11,0,0,0,.16-.87,2.33,2.33,0,0,0-.24-.93,2.82,2.82,0,0,0-.78-.92l-1.57-1.26-3,3.78Z"/>
          <path class="cls-1" d="M43.64,165.3l1.4.94-7.79,11.55-1.41-.95Z"/>
          <path class="cls-1" d="M42.74,181.38a4,4,0,0,1-1.44-1.32,3.38,3.38,0,0,1-.54-1.82,4.22,4.22,0,0,1,.6-2.11,4.35,4.35,0,0,1,1.51-1.63,3.61,3.61,0,0,1,1.91-.52,3.82,3.82,0,0,1,1.91.51,3.21,3.21,0,0,1,1.72,2.8l-.23.18.91-1.29,1.35.76-3.64,6.5-1.46-.81.95-1.7,0,.47a2,2,0,0,1-.52.24,4.46,4.46,0,0,1-.83.18,3.52,3.52,0,0,1-2.16-.44Zm1.07-1a2.77,2.77,0,0,0,1.1.35,2.15,2.15,0,0,0,1.06-.18,2.52,2.52,0,0,0,.89-.65l.71-1.27a2.16,2.16,0,0,0,0-1.07,2.41,2.41,0,0,0-.44-1,2.76,2.76,0,0,0-.85-.73,2.42,2.42,0,0,0-1.24-.32,2.33,2.33,0,0,0-1.22.35,2.65,2.65,0,0,0-1,1,2.6,2.6,0,0,0-.34,1.32,2.48,2.48,0,0,0,.34,1.26A2.44,2.44,0,0,0,43.81,180.39Z"/>
          <path class="cls-1" d="M49.23,188.53l8.83-8.24,1.43.61-8.74,8.28ZM52.31,186l-.38-8.31,1.74.74.17,7.3Z"/>
          <path class="cls-1" d="M66.69,177.83l2,.38,1.61,10.41-.28-.16,3.77-6.08.35,2.46-4.89,7.29ZM72.86,179l1.7.32,1.94,10.36-.35-.15,5.09-8.94,1.84.34-7.53,12.36Z"/>
          <path class="cls-1" d="M83.94,186.11l1.69.1-.47,7.44-1.69-.11Zm.07-2.7a.83.83,0,0,1,.35-.65,1,1,0,0,1,1.38.09.89.89,0,0,1-.09,1.34,1.05,1.05,0,0,1-1.37-.09A.83.83,0,0,1,84,183.41Z"/>
          <path class="cls-1" d="M89.18,183.06h1.71v3.31h2v1.31h-2l0,6.11H89.14l0-6.1H87.81v-1.31h1.35Z"/>
          <path class="cls-1" d="M95.45,193.74l-1.21-13.88,1.65-.15.71,8.18-.06-.3a3.15,3.15,0,0,1,1-1.32,3.52,3.52,0,0,1,1.81-.65,2.45,2.45,0,0,1,1.77.47,2.14,2.14,0,0,1,.83,1.55l.48,5.49-1.69.14-.42-4.91a1.57,1.57,0,0,0-.44-1,1.25,1.25,0,0,0-1.06-.29,2,2,0,0,0-1.13.46,2.55,2.55,0,0,0-.74,1.07,3.31,3.31,0,0,0-.17,1.46l.3,3.48Z"/>
          <path class="cls-1" d="M111.36,191.71l1.75-14.59.11,0,9.17,11.49-1.93.55-7-9.25,1-1.12L113,191.24Zm1.85-5.65,4.66-1.32,1,1.29-5.7,1.62Z"/>
          <path class="cls-1" d="M127.32,186.84a2.39,2.39,0,0,1-1.81.09,2.22,2.22,0,0,1-1.27-1.21l-2.15-5.07,1.55-.66,1.93,4.52a1.55,1.55,0,0,0,.71.76,1.26,1.26,0,0,0,1.09,0,1.86,1.86,0,0,0,.87-.77,2.76,2.76,0,0,0,.35-1.24,3.33,3.33,0,0,0-.29-1.45l-1.36-3.2,1.54-.66,2.91,6.86-1.4.6-.85-1.63.23.27a2.9,2.9,0,0,1-.26,1.1,3.15,3.15,0,0,1-.7,1A3.57,3.57,0,0,1,127.32,186.84Z"/>
          <path class="cls-1" d="M137.41,181.85a3.58,3.58,0,0,1-1.87.5,3.71,3.71,0,0,1-1.85-.57,4.31,4.31,0,0,1-1.46-1.58,4.12,4.12,0,0,1-.6-2.11,3.47,3.47,0,0,1,.56-1.86,4.16,4.16,0,0,1,1.49-1.39,4,4,0,0,1,1.65-.5,3,3,0,0,1,1.6.29l.22.56-4-7.12,1.45-.83,6.88,12.12-1.46.83-.91-1.62.4.31a4.25,4.25,0,0,1-.64,1.66A4,4,0,0,1,137.41,181.85Zm-.25-1.49a2.62,2.62,0,0,0,.9-.8,2.51,2.51,0,0,0,.36-2.13l-.7-1.24a2.46,2.46,0,0,0-2-.69,2.8,2.8,0,0,0-1.11.37,2.47,2.47,0,0,0-1.27,2.13,2.51,2.51,0,0,0,.36,1.32,2.59,2.59,0,0,0,1,1,2.78,2.78,0,0,0,1.26.36A2.35,2.35,0,0,0,137.16,180.36Z"/>
          <path class="cls-1" d="M138.48,169.1a.84.84,0,0,1-.12-.72,1,1,0,0,1,.42-.62,1,1,0,0,1,.72-.16.88.88,0,0,1,.76,1.1,1.05,1.05,0,0,1-1.14.78A.82.82,0,0,1,138.48,169.1Zm1.62,2.17,1.39-1,4.21,6.15-1.39.95Z"/>
          <path class="cls-1" d="M145.58,172a3.82,3.82,0,0,1-.61-3.93,4.37,4.37,0,0,1,1.35-1.76,4.1,4.1,0,0,1,2-.93,3.68,3.68,0,0,1,2,.2,4.05,4.05,0,0,1,1.67,1.25,4,4,0,0,1,.87,1.89,3.85,3.85,0,0,1-.21,2,4.27,4.27,0,0,1-1.33,1.76,4.46,4.46,0,0,1-2,1,3.76,3.76,0,0,1-2-.16A3.85,3.85,0,0,1,145.58,172Zm1.32-1a2.5,2.5,0,0,0,1.08.81,2.47,2.47,0,0,0,1.25.18,2.34,2.34,0,0,0,1.17-.5,2.38,2.38,0,0,0,.75-1,2.54,2.54,0,0,0,.08-1.26,2.61,2.61,0,0,0-.58-1.21,2.7,2.7,0,0,0-1.06-.82,2.61,2.61,0,0,0-1.26-.19,2.3,2.3,0,0,0-1.18.51,2.15,2.15,0,0,0-.73,1.06,2.49,2.49,0,0,0-.08,1.27A2.65,2.65,0,0,0,146.9,170.93Z"/>
          <path class="cls-1" d="M165.16,159a.64.64,0,0,1-.4,1.12l-4.72.26-1.76,2a.66.66,0,0,1-.91,0l-2.87-2.58a.66.66,0,0,1-.05-.91l1.76-2-.26-4.72a.63.63,0,0,1,.16-.46.65.65,0,0,1,.91-.05Z"/>
        </g>
        <g>
          <path class="cls-1" d="M29.69,40.31a.63.63,0,0,1,.07.9.63.63,0,0,1-.44.22l-4.71.38-1.71,2a.66.66,0,0,1-.91.07l-2.93-2.5a.65.65,0,0,1-.07-.91l1.7-2-.37-4.72a.67.67,0,0,1,.15-.47.65.65,0,0,1,.9-.07Z"/>
          <path class="cls-1" d="M31.18,21.14A5.75,5.75,0,0,1,33.38,20a3.66,3.66,0,0,1,2.08.13,4.09,4.09,0,0,1,1.77,1.38A5,5,0,0,1,38,22.88a3.55,3.55,0,0,1,.24,1.52A3.68,3.68,0,0,1,37.77,26a5,5,0,0,1-1.37,1.53l-1.52,1.19,2.94,3.76-1.38,1.07-8-10.26Zm4.16,5.05a3.17,3.17,0,0,0,.86-1,2.16,2.16,0,0,0,.23-1,2.57,2.57,0,0,0-.18-.9,2.51,2.51,0,0,0-.37-.69,3.3,3.3,0,0,0-.61-.56,2,2,0,0,0-.81-.35,2.09,2.09,0,0,0-1,0,2.8,2.8,0,0,0-1.07.55l-1.59,1.24,3,3.83Z"/>
          <path class="cls-1" d="M36.62,16.08,38,15.16l7.6,11.67-1.41.93Z"/>
          <path class="cls-1" d="M50.42,24.22a4,4,0,0,1-1.89.5,3.34,3.34,0,0,1-1.82-.52,4.19,4.19,0,0,1-1.45-1.64,4.14,4.14,0,0,1-.56-2.15,3.54,3.54,0,0,1,.58-1.89,3.93,3.93,0,0,1,1.46-1.34,3.18,3.18,0,0,1,3.28.06l0,.29-.59-1.46,1.36-.73,3.53,6.56-1.48.8L52,21l.38.29a2.45,2.45,0,0,1-.08.57,4.24,4.24,0,0,1-.3.8,4,4,0,0,1-.57.85A3.47,3.47,0,0,1,50.42,24.22Zm-.26-1.44a2.51,2.51,0,0,0,.89-.74,2.2,2.2,0,0,0,.42-1A2.48,2.48,0,0,0,51.4,20l-.69-1.28a2.28,2.28,0,0,0-.89-.59,2.4,2.4,0,0,0-1.06-.15,2.69,2.69,0,0,0-1.08.32,2.41,2.41,0,0,0-1.3,2.09,2.71,2.71,0,0,0,.35,1.34,2.54,2.54,0,0,0,.92,1,2.58,2.58,0,0,0,1.25.39A2.39,2.39,0,0,0,50.16,22.78Z"/>
          <path class="cls-1" d="M58.68,20.13l-6.15-5.61,1.75-.71,5.28,5Zm-.4,4L58.7,12l1.44-.58-.32,12Z"/>
          <path class="cls-1" d="M65.82,3.63l2-.34L73,12.51l-.32-.06,1.43-7,1.19,2.19-2.07,8.52Zm6.2-1,1.7-.29,5.4,9h-.38L80.43,1.18,82.28.87,79.47,15.06Z"/>
          <path class="cls-1" d="M85,3.79a.82.82,0,0,1,.29-.68A1.07,1.07,0,0,1,86,2.8a1,1,0,0,1,.7.24.89.89,0,0,1,.07,1.34,1.06,1.06,0,0,1-1.38.07A.87.87,0,0,1,85,3.79Zm.25,2.69L87,6.4l.37,7.44-1.69.08Z"/>
          <path class="cls-1" d="M90.66,3l1.71,0,0,3.31,2,0V7.72l-2,0-.07,6.1-1.71,0,.07-6.1-1.35,0,0-1.31,1.35,0Z"/>
          <path class="cls-1" d="M95.67,13.86,97.11,0l1.64.17L97.9,8.34V8a3.07,3.07,0,0,1,1.28-1.1,3.39,3.39,0,0,1,1.9-.29,2.41,2.41,0,0,1,1.65.8,2.13,2.13,0,0,1,.52,1.67l-.57,5.48L101,14.41l.51-4.9a1.5,1.5,0,0,0-.25-1,1.31,1.31,0,0,0-1-.49,2,2,0,0,0-1.19.25,2.46,2.46,0,0,0-.93.91,3.21,3.21,0,0,0-.44,1.4L97.35,14Z"/>
          <path class="cls-1" d="M109.11,15.67l9.35-11.33.11,0L120.09,19l-1.91-.58-.94-11.58,1.43-.42-7.9,9.76Zm4.62-3.76,4.63,1.4.12,1.62-5.67-1.72Z"/>
          <path class="cls-1" d="M123.23,20.77a2.33,2.33,0,0,1-1.3-1.26,2.22,2.22,0,0,1,0-1.75l2.24-5,1.54.68-2,4.49a1.67,1.67,0,0,0-.07,1.05,1.29,1.29,0,0,0,.75.78,1.88,1.88,0,0,0,1.17.11,2.63,2.63,0,0,0,1.14-.6,3.09,3.09,0,0,0,.86-1.2L129,14.87l1.53.68-3,6.81-1.4-.62.61-1.74,0,.36a2.9,2.9,0,0,1-1,.56,3.2,3.2,0,0,1-1.21.16A3.43,3.43,0,0,1,123.23,20.77Z"/>
          <path class="cls-1" d="M132,25a3.54,3.54,0,0,1-1.79-3.26,4.3,4.3,0,0,1,.64-2.06,4.15,4.15,0,0,1,1.52-1.56,3.64,3.64,0,0,1,1.9-.46,4.18,4.18,0,0,1,1.94.6,4,4,0,0,1,1.26,1.18A3,3,0,0,1,138,21l-.38.46,4.16-7,1.44.84-7.07,12-1.44-.85.94-1.59-.07.5a4.21,4.21,0,0,1-1.75.27A4,4,0,0,1,132,25Zm1.17-1a2.79,2.79,0,0,0,1.15.38,2.45,2.45,0,0,0,1.08-.15,2.35,2.35,0,0,0,.94-.61l.72-1.22a2.32,2.32,0,0,0,0-1.08,2.44,2.44,0,0,0-.44-1,2.86,2.86,0,0,0-.87-.78,2.54,2.54,0,0,0-1.23-.35,2.49,2.49,0,0,0-1.25.31,2.61,2.61,0,0,0-1,1,2.56,2.56,0,0,0-.06,2.58A2.37,2.37,0,0,0,133.15,24.07Z"/>
          <path class="cls-1" d="M142.37,22.58l1.38,1-4.31,6.09-1.38-1Zm1.47-2.27a.87.87,0,0,1,.64-.36,1,1,0,0,1,.72.18,1,1,0,0,1,.4.61.89.89,0,0,1-.77,1.1,1,1,0,0,1-1.12-.8A.8.8,0,0,1,143.84,20.31Z"/>
          <path class="cls-1" d="M143.31,27.66a3.91,3.91,0,0,1,1.7-1.2,3.75,3.75,0,0,1,2.05-.15,4.3,4.3,0,0,1,2,1,4.19,4.19,0,0,1,1.3,1.76,3.74,3.74,0,0,1,.19,2,4.23,4.23,0,0,1-2.59,3.09,3.61,3.61,0,0,1-2,.18,4.14,4.14,0,0,1-2-1,4.56,4.56,0,0,1-1.32-1.75,3.7,3.7,0,0,1-.23-2A4,4,0,0,1,143.31,27.66Zm1.29,1.1A2.79,2.79,0,0,0,144,30a2.59,2.59,0,0,0,.07,1.27,2.24,2.24,0,0,0,.72,1,2.31,2.31,0,0,0,1.18.54,2.46,2.46,0,0,0,1.25-.17,2.68,2.68,0,0,0,1.08-.8,2.81,2.81,0,0,0,.59-1.2,2.48,2.48,0,0,0-.06-1.27,2.33,2.33,0,0,0-1.9-1.58,2.51,2.51,0,0,0-1.27.18A2.62,2.62,0,0,0,144.6,28.76Z"/>
          <path class="cls-1" d="M155.94,45.67a.64.64,0,0,1-.9-.07.61.61,0,0,1-.16-.46l.34-4.72-1.73-2a.64.64,0,0,1,.07-.9L156.47,35a.66.66,0,0,1,.91.06l1.72,2,4.72.33a.67.67,0,0,1,.44.22.65.65,0,0,1-.07.91Z"/>
        </g>
        <path class="cls-1" d="M168.92,142.61l-.87-.5a89.6,89.6,0,0,0,0-89.41l.87-.5a90.62,90.62,0,0,1,0,90.41Z"/>
        <path class="cls-1" d="M12.08,142.61a90.62,90.62,0,0,1,0-90.41l.87.5a89.6,89.6,0,0,0,0,89.41Z"/>
      </g>
      <g class="_icon">
          <rect class="cls-1" x="56.2" y="89.72" width="4.57" height="13.64"/>
          <rect class="cls-1" x="120.23" y="89.72" width="4.57" height="13.64"/>
          <rect class="cls-1" x="101.94" y="89.72" width="4.57" height="13.64"/>
          <rect class="cls-1" x="83.64" y="89.72" width="4.57" height="13.64"/>
          <rect class="cls-1" x="65.34" y="82.9" width="4.57" height="27.26"/>
          <rect class="cls-1" x="92.79" y="82.9" width="4.57" height="27.26"/>
          <rect class="cls-1" x="111.22" y="76.08" width="4.57" height="40.89"/>
          <rect class="cls-1" x="74.51" y="69.26" width="4.57" height="54.53"/>
          <rect class="cls-1" x="47.05" y="94.27" width="4.57" height="4.55"/>
          <rect class="cls-1" x="129.38" y="94.27" width="4.57" height="4.55"/>
        </g>
    </g>
  </g>
</svg>
