<?xml version="1.0" encoding="UTF-8" standalone="no"?>
<svg
   xmlns:dc="http://purl.org/dc/elements/1.1/"
   xmlns:cc="http://creativecommons.org/ns#"
   xmlns:rdf="http://www.w3.org/1999/02/22-rdf-syntax-ns#"
   xmlns:svg="http://www.w3.org/2000/svg"
   xmlns="http://www.w3.org/2000/svg"
   xmlns:sodipodi="http://sodipodi.sourceforge.net/DTD/sodipodi-0.dtd"
   xmlns:inkscape="http://www.inkscape.org/namespaces/inkscape"
   width="181.00105"
   height="196.638"
   viewBox="0 0 181.00105 196.63799"
   version="1.1"
   id="svg92"
   sodipodi:docname="play.svg"
   inkscape:version="1.0.2 (e86c870879, 2021-01-15, custom)">
  <metadata
     id="metadata96">
    <rdf:RDF>
      <cc:Work
         rdf:about="">
        <dc:format>image/svg+xml</dc:format>
        <dc:type
           rdf:resource="http://purl.org/dc/dcmitype/StillImage" />
        <dc:title></dc:title>
      </cc:Work>
    </rdf:RDF>
  </metadata>
  <sodipodi:namedview
     pagecolor="#ffffff"
     bordercolor="#666666"
     borderopacity="1"
     objecttolerance="10"
     gridtolerance="10"
     guidetolerance="10"
     inkscape:pageopacity="0"
     inkscape:pageshadow="2"
     inkscape:window-width="3840"
     inkscape:window-height="2066"
     id="namedview94"
     showgrid="false"
     inkscape:zoom="2.5630463"
     inkscape:cx="128.72907"
     inkscape:cy="118.32916"
     inkscape:window-x="2869"
     inkscape:window-y="-11"
     inkscape:window-maximized="1"
     inkscape:current-layer="g90"
     inkscape:document-rotation="0" />
  <defs
     id="defs4">
    <style
       id="style2">.a{fill:#fff;}</style>
  </defs>
  <g
     id="g90"
     style="fill:#000000;fill-opacity:1"
     transform="translate(-0.83785918,0.39602081)">
    <path
       class="a"
       d="m 23.394882,52.595979 a 0.791,0.791 0 0 1 0.277,1.076 0.785,0.785 0 0 1 -0.482,0.357 l -5.6,1.442 -1.635,2.769 a 0.792,0.792 0 0 1 -1.077,0.278 l -4.06,-2.4 a 0.79,0.79 0 0 1 -0.277,-1.076 l 1.636,-2.77 -1.441,-5.6 a 0.776,0.776 0 0 1 0.08,-0.594 0.792,0.792 0 0 1 1.076,-0.277 z"
       id="path26"
       style="fill:#ffffff;fill-opacity:1" />
    <path
       class="a"
       d="m 21.806882,29.283979 a 6.921,6.921 0 0 1 2.506,-1.7 4.356,4.356 0 0 1 2.535,-0.165 5.014,5.014 0 0 1 2.362,1.4 6.13,6.13 0 0 1 1.119,1.512 4.688,4.688 0 0 1 0.529,1.81 4.515,4.515 0 0 1 -0.311,2 6.035,6.035 0 0 1 -1.416,2.068 l -1.657,1.671 4.14,4.106 -1.5,1.515 -11.293,-11.2 z m 5.825,5.467 a 3.576,3.576 0 0 0 0.89,-1.318 2.549,2.549 0 0 0 0.127,-1.237 3.311,3.311 0 0 0 -0.347,-1.056 3.261,3.261 0 0 0 -0.563,-0.776 3.524,3.524 0 0 0 -0.82,-0.6 2.613,2.613 0 0 0 -1.035,-0.3 2.785,2.785 0 0 0 -1.167,0.176 3.379,3.379 0 0 0 -1.209,0.83 l -1.735,1.749 4.217,4.183 z"
       id="path28"
       style="fill:#ffffff;fill-opacity:1" />
    <path
       class="a"
       d="m 27.835882,22.226979 1.6,-1.308 10.773,13.187 -1.6,1.308 z"
       id="path30"
       style="fill:#ffffff;fill-opacity:1" />
    <path
       class="a"
       d="m 45.569882,30.449979 a 4.927,4.927 0 0 1 -2.243,0.816 4.1,4.1 0 0 1 -2.276,-0.439 5.145,5.145 0 0 1 -1.947,-1.84 5.174,5.174 0 0 1 -0.917,-2.556 4.424,4.424 0 0 1 0.5,-2.359 4.815,4.815 0 0 1 1.641,-1.79 3.874,3.874 0 0 1 2.131,-0.7 3.955,3.955 0 0 1 1.868,0.417 l 0.071,0.349 -0.887,-1.708 1.582,-1.04 5,7.611 -1.71,1.124 -1.306,-1.985 0.494,0.307 a 2.819,2.819 0 0 1 -0.041,0.7 5.361,5.361 0 0 1 -0.273,1.008 4.287,4.287 0 0 1 -0.608,1.1 4.238,4.238 0 0 1 -1.079,0.985 z m -0.472,-1.717 a 3.267,3.267 0 0 0 1,-1 2.718,2.718 0 0 0 0.407,-1.243 3.044,3.044 0 0 0 -0.207,-1.337 l -0.98,-1.49 a 2.82,2.82 0 0 0 -1.149,-0.627 3.084,3.084 0 0 0 -1.305,-0.062 3.245,3.245 0 0 0 -1.273,0.507 2.961,2.961 0 0 0 -1.051,1.165 2.953,2.953 0 0 0 -0.3,1.517 3.216,3.216 0 0 0 0.566,1.6 3.149,3.149 0 0 0 1.231,1.113 3.111,3.111 0 0 0 1.565,0.339 2.922,2.922 0 0 0 1.496,-0.482 z"
       id="path32"
       style="fill:#ffffff;fill-opacity:1" />
    <path
       class="a"
       d="m 55.079882,24.773979 -7.948,-6.352 2.08,-1 6.846,5.737 z m -0.168,4.868 -0.449,-14.756 1.7,-0.821 0.568,14.7 z"
       id="path34"
       style="fill:#ffffff;fill-opacity:1" />
    <path
       class="a"
       d="m 62.845882,4.1019792 2.462,-0.475 6.517,11.1089998 -0.393,-0.059 1.541,-8.6099998 1.519,2.642 -2.279,10.4779998 z m 7.539,-1.456 2.073,-0.4 6.875,10.8839998 h -0.469 l 1.76,-12.46199981 2.246,-0.434 -3,17.42799981 z"
       id="path36"
       style="fill:#ffffff;fill-opacity:1" />
    <path
       class="a"
       d="m 85.998883,3.9739792 a 1.03,1.03 0 0 1 0.348,-0.83 1.274,1.274 0 0 1 0.831,-0.367 1.23,1.23 0 0 1 0.85,0.293 1.037,1.037 0 0 1 0.41,0.8 1.032,1.032 0 0 1 -0.337,0.841 1.258,1.258 0 0 1 -0.821,0.356 1.3,1.3 0 0 1 -0.861,-0.282 1.016,1.016 0 0 1 -0.42,-0.811 z m 0.277,3.292 2.066,-0.093 0.405,9.0999998 -2.067,0.092 z"
       id="path38"
       style="fill:#ffffff;fill-opacity:1" />
    <path
       class="a"
       d="m 92.951883,3.1319792 2.088,0.064 -0.125,4.047 2.484,0.077 -0.05,1.6 -2.485,-0.077 -0.232,7.4539998 -2.089,-0.065 0.233,-7.4539998 -1.651,-0.051 0.051,-1.605 1.649,0.051 z"
       id="path40"
       style="fill:#ffffff;fill-opacity:1" />
    <path
       class="a"
       d="m 98.673883,16.456979 2.425997,-16.85299981 2,0.288 -1.429,9.92900001 0.01,-0.375 a 3.792,3.792 0 0 1 1.617,-1.279 4.229,4.229 0 0 1 2.339,-0.264 2.992,2.992 0 0 1 1.972,1.051 2.627,2.627 0 0 1 0.557,2.0689998 l -0.96,6.664 -2.045,-0.295 0.858,-5.966 a 1.87,1.87 0 0 0 -0.254,-1.249 1.588,1.588 0 0 0 -1.186,-0.6479998 2.422,2.422 0 0 0 -1.467,0.244 3,3 0 0 0 -1.176,1.0649998 4.063,4.063 0 0 0 -0.61,1.69 l -0.609,4.224 z"
       id="path42"
       style="fill:#ffffff;fill-opacity:1" />
    <path
       class="a"
       d="m 114.67688,19.337979 12.488,-12.8999998 0.124,0.048 0.439,17.9599998 -2.273,-0.89 -0.019,-14.2049998 1.773,-0.368 -10.565,11.1269998 z m 5.987,-4.132 5.51,2.156 -0.016,1.978 -6.742,-2.637 z"
       id="path44"
       style="fill:#ffffff;fill-opacity:1" />
    <path
       class="a"
       d="m 131.14888,26.956979 a 2.9,2.9 0 0 1 -1.42,-1.7 2.728,2.728 0 0 1 0.252,-2.128 l 3.371,-5.828 1.789,1.036 -3.006,5.2 a 2,2 0 0 0 -0.22,1.259 1.572,1.572 0 0 0 0.819,1.045 2.2,2.2 0 0 0 1.4,0.287 3.245,3.245 0 0 0 1.463,-0.576 4.037,4.037 0 0 0 1.211,-1.346 l 2.127,-3.676 1.771,1.025 -4.56,7.884 -1.619,-0.936 0.971,-2.031 -0.095,0.429 a 3.6,3.6 0 0 1 -1.261,0.553 3.864,3.864 0 0 1 -1.486,0.043 4.3,4.3 0 0 1 -1.507,-0.54 z"
       id="path46"
       style="fill:#ffffff;fill-opacity:1" />
    <path
       class="a"
       d="m 140.97688,33.237979 a 4.4,4.4 0 0 1 -1.43,-1.886 4.407,4.407 0 0 1 -0.217,-2.348 5.279,5.279 0 0 1 1.1,-2.392 5,5 0 0 1 2.1,-1.653 4.314,4.314 0 0 1 2.367,-0.243 5.08,5.08 0 0 1 2.259,1.039 4.786,4.786 0 0 1 1.337,1.631 3.707,3.707 0 0 1 0.418,1.946 l -0.534,0.5 6.164,-7.888 1.612,1.26 -10.485,13.418 -1.612,-1.261 1.4,-1.785 -0.162,0.6 a 5.178,5.178 0 0 1 -2.173,0.047 4.858,4.858 0 0 1 -2.144,-0.985 z m 1.574,-0.977 a 3.237,3.237 0 0 0 1.324,0.644 3.191,3.191 0 0 0 1.341,0 3.05,3.05 0 0 0 1.228,-0.59 l 1.07,-1.369 a 2.83,2.83 0 0 0 0.225,-1.3 3.118,3.118 0 0 0 -0.369,-1.279 3.433,3.433 0 0 0 -0.932,-1.078 3.054,3.054 0 0 0 -1.439,-0.623 2.99,2.99 0 0 0 -1.561,0.177 3.1,3.1 0 0 0 -1.332,1.025 3.151,3.151 0 0 0 -0.667,1.532 3.211,3.211 0 0 0 0.181,1.592 2.87,2.87 0 0 0 0.931,1.266 z"
       id="path48"
       style="fill:#ffffff;fill-opacity:1" />
    <path
       class="a"
       d="m 153.91388,31.988979 1.488,1.436 -6.32,6.558 -1.49,-1.436 z m 2.194,-2.467 a 1.032,1.032 0 0 1 0.842,-0.319 1.282,1.282 0 0 1 0.84,0.35 1.246,1.246 0 0 1 0.373,0.818 1.05,1.05 0 0 1 -0.3,0.846 1.039,1.039 0 0 1 -0.843,0.335 1.254,1.254 0 0 1 -0.822,-0.351 1.3,1.3 0 0 1 -0.389,-0.818 1.023,1.023 0 0 1 0.299,-0.861 z"
       id="path50"
       style="fill:#ffffff;fill-opacity:1" />
    <path
       class="a"
       d="m 154.09788,38.261979 a 4.76,4.76 0 0 1 2.3,-1.105 4.687,4.687 0 0 1 2.492,0.247 5.354,5.354 0 0 1 2.191,1.588 5.185,5.185 0 0 1 1.2,2.39 4.574,4.574 0 0 1 -0.191,2.459 4.884,4.884 0 0 1 -1.468,2.075 4.891,4.891 0 0 1 -2.283,1.12 4.655,4.655 0 0 1 -2.465,-0.2 5.155,5.155 0 0 1 -2.193,-1.573 5.463,5.463 0 0 1 -1.229,-2.376 4.584,4.584 0 0 1 0.127,-2.464 4.853,4.853 0 0 1 1.519,-2.161 z m 1.324,1.588 a 3.253,3.253 0 0 0 -0.959,1.336 3.089,3.089 0 0 0 -0.176,1.538 2.735,2.735 0 0 0 0.651,1.41 2.771,2.771 0 0 0 1.3,0.885 2.984,2.984 0 0 0 1.541,0.061 3.322,3.322 0 0 0 1.463,-0.741 3.311,3.311 0 0 0 0.964,-1.327 3.081,3.081 0 0 0 0.194,-1.537 2.73,2.73 0 0 0 -0.658,-1.435 2.7,2.7 0 0 0 -1.311,-0.862 3.127,3.127 0 0 0 -1.564,-0.054 3.268,3.268 0 0 0 -1.445,0.726 z"
       id="path52"
       style="fill:#ffffff;fill-opacity:1" />
    <path
       class="a"
       d="m 165.00788,62.554979 a 0.791,0.791 0 0 1 -1.069,-0.3 0.778,0.778 0 0 1 -0.065,-0.6 l 1.581,-5.56 -1.566,-2.809 a 0.792,0.792 0 0 1 0.3,-1.069 l 4.117,-2.294 a 0.791,0.791 0 0 1 1.069,0.3 l 1.565,2.809 5.56,1.58 a 0.784,0.784 0 0 1 0.473,0.37 0.791,0.791 0 0 1 -0.3,1.068 z"
       id="path54"
       style="fill:#ffffff;fill-opacity:1" />
    <path
       class="a"
       d="m 9.7248821,153.21398 a 0.792,0.792 0 0 1 -1.08,-0.265 0.788,0.788 0 0 1 -0.086,-0.593 l 1.377,-5.618 -1.668,-2.752 a 0.791,0.791 0 0 1 0.266,-1.079 l 4.0329999,-2.443 a 0.789,0.789 0 0 1 1.078,0.265 l 1.668,2.752 5.615,1.378 a 0.782,0.782 0 0 1 0.486,0.352 0.791,0.791 0 0 1 -0.265,1.079 z"
       id="path56"
       style="fill:#ffffff;fill-opacity:1" />
    <path
       class="a"
       d="m 33.681882,156.68698 a 6.92,6.92 0 0 1 1.7,2.5 4.337,4.337 0 0 1 0.168,2.534 5.007,5.007 0 0 1 -1.394,2.365 6.239,6.239 0 0 1 -1.51,1.12 4.685,4.685 0 0 1 -1.811,0.531 4.531,4.531 0 0 1 -2,-0.308 6.05,6.05 0 0 1 -2.069,-1.412 l -1.673,-1.656 -4.1,4.145 -1.517,-1.5 11.186,-11.309 z m -5.461,5.832 a 3.594,3.594 0 0 0 1.319,0.886 2.505,2.505 0 0 0 1.238,0.126 3.33,3.33 0 0 0 1.056,-0.347 3.342,3.342 0 0 0 0.776,-0.565 3.5,3.5 0 0 0 0.593,-0.82 2.6,2.6 0 0 0 0.3,-1.036 2.748,2.748 0 0 0 -0.177,-1.166 3.367,3.367 0 0 0 -0.83,-1.208 l -1.752,-1.734 -4.178,4.224 z"
       id="path58"
       style="fill:#ffffff;fill-opacity:1" />
    <path
       class="a"
       d="m 39.935882,160.82898 1.611,1.295 -10.656,13.28 -1.613,-1.294 z"
       id="path60"
       style="fill:#ffffff;fill-opacity:1" />
    <path
       class="a"
       d="m 37.386882,180.35298 a 4.893,4.893 0 0 1 -1.651,-1.721 4.086,4.086 0 0 1 -0.52,-2.259 5.124,5.124 0 0 1 0.9,-2.524 5.172,5.172 0 0 1 1.968,-1.872 4.42,4.42 0 0 1 2.36,-0.493 4.79,4.79 0 0 1 2.3,0.777 3.886,3.886 0 0 1 1.5,1.664 3.955,3.955 0 0 1 0.373,1.877 l -0.29,0.206 1.2,-1.5 1.59,1.026 -4.938,7.653 -1.72,-1.11 1.288,-2 -0.083,0.575 a 2.77,2.77 0 0 1 -0.655,0.245 5.43,5.43 0 0 1 -1.031,0.159 4.276,4.276 0 0 1 -1.25,-0.113 4.208,4.208 0 0 1 -1.341,-0.59 z m 1.381,-1.125 a 3.251,3.251 0 0 0 1.32,0.51 2.692,2.692 0 0 0 1.3,-0.128 3.075,3.075 0 0 0 1.139,-0.731 l 0.967,-1.5 a 2.815,2.815 0 0 0 0.108,-1.3 3.092,3.092 0 0 0 -0.47,-1.22 3.265,3.265 0 0 0 -0.978,-0.958 2.982,2.982 0 0 0 -1.49,-0.491 2.956,2.956 0 0 0 -1.512,0.334 3.239,3.239 0 0 0 -1.237,1.165 3.155,3.155 0 0 0 -0.519,1.578 3.1,3.1 0 0 0 0.322,1.569 2.922,2.922 0 0 0 1.05,1.172 z"
       id="path62"
       style="fill:#ffffff;fill-opacity:1" />
    <path
       class="a"
       d="m 45.067882,189.64598 11.18,-9.642 1.711,0.806 -11.06,9.7 z m 3.887,-2.936 -0.071,-10.174 2.089,0.985 -0.144,8.928 z"
       id="path64"
       style="fill:#ffffff;fill-opacity:1" />
    <path
       class="a"
       d="m 66.435882,177.39098 2.474,0.411 2.241,12.684 -0.348,-0.192 4.442,-7.536 0.5,3 -5.783,9.03 z m 7.573,1.259 2.085,0.346 2.656,12.6 -0.442,-0.162 5.988,-11.069 2.257001,0.375 -8.877001,15.294 z"
       id="path66"
       style="fill:#ffffff;fill-opacity:1" />
    <path
       class="a"
       d="m 87.216883,187.06798 2.069,0.074 -0.329,9.1 -2.067,-0.074 z m -0.011,-3.3 a 1.025,1.025 0 0 1 0.414,-0.8 1.259,1.259 0 0 1 0.857,-0.3 1.222,1.222 0 0 1 0.824,0.36 1.048,1.048 0 0 1 0.345,0.827 1.036,1.036 0 0 1 -0.4,0.81 1.263,1.263 0 0 1 -0.848,0.289 1.291,1.291 0 0 1 -0.834,-0.349 1.012,1.012 0 0 1 -0.358,-0.841 z"
       id="path68"
       style="fill:#ffffff;fill-opacity:1" />
    <path
       class="a"
       d="m 93.445883,183.14398 2.09,-0.082 0.158,4.045 2.484,-0.1 0.063,1.6 -2.485,0.1 0.294,7.452 -2.089,0.081 -0.293,-7.451 -1.648,0.065 -0.063,-1.606 1.649,-0.064 z"
       id="path70"
       style="fill:#ffffff;fill-opacity:1" />
    <path
       class="a"
       d="m 101.86188,195.80798 -2.571997,-16.833 1.999997,-0.306 1.514,9.916 -0.1,-0.362 a 3.791,3.791 0 0 1 1.176,-1.693 4.245,4.245 0 0 1 2.162,-0.931 2.978,2.978 0 0 1 2.191,0.433 2.623,2.623 0 0 1 1.135,1.819 l 1.017,6.654 -2.045,0.313 -0.91,-5.959 a 1.868,1.868 0 0 0 -0.6,-1.121 1.583,1.583 0 0 0 -1.323,-0.276 2.432,2.432 0 0 0 -1.334,0.659 3.037,3.037 0 0 0 -0.816,1.361 4.073,4.073 0 0 0 -0.093,1.8 l 0.644,4.218 z"
       id="path72"
       style="fill:#ffffff;fill-opacity:1" />
    <path
       class="a"
       d="m 121.38288,191.81398 0.235,-17.955 0.123,-0.05 12.64,12.766 -2.265,0.913 -9.758,-10.322 1.037,-1.486 -0.053,15.345 z m 1.522,-7.113 5.488,-2.212 1.343,1.449 -6.713,2.705 z"
       id="path74"
       style="fill:#ffffff;fill-opacity:1" />
    <path
       class="a"
       d="m 140.30288,183.55698 a 2.909,2.909 0 0 1 -2.176,0.407 2.733,2.733 0 0 1 -1.734,-1.262 l -3.432,-5.791 1.78,-1.054 3.062,5.166 a 1.987,1.987 0 0 0 0.99,0.806 1.569,1.569 0 0 0 1.313,-0.2 2.212,2.212 0 0 0 0.932,-1.078 3.24,3.24 0 0 0 0.214,-1.56 4.011,4.011 0 0 0 -0.582,-1.713 l -2.164,-3.653 1.76,-1.044 4.645,7.836 -1.609,0.953 -1.3,-1.84 0.326,0.292 a 3.607,3.607 0 0 1 -0.132,1.371 3.88,3.88 0 0 1 -0.691,1.316 4.3,4.3 0 0 1 -1.202,1.048 z"
       id="path76"
       style="fill:#ffffff;fill-opacity:1" />
    <path
       class="a"
       d="m 151.77788,175.67198 a 4.381,4.381 0 0 1 -2.167,0.954 4.4,4.4 0 0 1 -2.334,-0.333 5.256,5.256 0 0 1 -2.071,-1.626 5.019,5.019 0 0 1 -1.121,-2.427 4.33,4.33 0 0 1 0.312,-2.36 5.087,5.087 0 0 1 1.539,-1.956 4.769,4.769 0 0 1 1.9,-0.922 3.715,3.715 0 0 1 1.992,0.044 l 0.367,0.636 -6.244,-7.824 1.6,-1.277 10.621,13.311 -1.6,1.276 -1.412,-1.771 0.545,0.3 a 5.2,5.2 0 0 1 -0.457,2.125 4.879,4.879 0 0 1 -1.47,1.85 z m -0.586,-1.757 a 3.212,3.212 0 0 0 0.933,-1.138 3.139,3.139 0 0 0 0.311,-1.3 3.02,3.02 0 0 0 -0.287,-1.332 l -1.084,-1.359 a 2.855,2.855 0 0 0 -1.217,-0.52 3.113,3.113 0 0 0 -1.33,0.062 3.441,3.441 0 0 0 -1.264,0.657 3.056,3.056 0 0 0 -0.939,1.256 2.98,2.98 0 0 0 -0.191,1.559 3.123,3.123 0 0 0 0.687,1.533 3.142,3.142 0 0 0 1.336,1 3.24,3.24 0 0 0 1.592,0.195 2.858,2.858 0 0 0 1.453,-0.613 z"
       id="path78"
       style="fill:#ffffff;fill-opacity:1" />
    <path
       class="a"
       d="m 150.51988,160.08998 a 1.032,1.032 0 0 1 -0.3,-0.851 1.274,1.274 0 0 1 0.373,-0.829 1.236,1.236 0 0 1 0.828,-0.35 1.045,1.045 0 0 1 0.838,0.319 1.045,1.045 0 0 1 0.311,0.851 1.261,1.261 0 0 1 -0.373,0.813 1.3,1.3 0 0 1 -0.828,0.366 1.022,1.022 0 0 1 -0.849,-0.319 z m 2.408,2.262 1.475,-1.449 6.383,6.5 -1.475,1.449 z"
       id="path80"
       style="fill:#ffffff;fill-opacity:1" />
    <path
       class="a"
       d="m 159.74288,161.98198 a 4.752,4.752 0 0 1 -1.475,-2.078 4.675,4.675 0 0 1 -0.174,-2.5 5.339,5.339 0 0 1 1.2,-2.426 5.161,5.161 0 0 1 2.157,-1.581 4.579,4.579 0 0 1 2.454,-0.226 4.879,4.879 0 0 1 2.293,1.1 4.887,4.887 0 0 1 1.486,2.061 4.673,4.673 0 0 1 0.221,2.464 5.148,5.148 0 0 1 -1.184,2.424 5.449,5.449 0 0 1 -2.136,1.611 4.565,4.565 0 0 1 -2.451,0.288 4.845,4.845 0 0 1 -2.391,-1.137 z m 1.342,-1.573 a 3.236,3.236 0 0 0 1.478,0.721 3.072,3.072 0 0 0 1.547,-0.083 2.722,2.722 0 0 0 1.279,-0.879 2.762,2.762 0 0 0 0.654,-1.432 3.018,3.018 0 0 0 -0.2,-1.53 3.325,3.325 0 0 0 -0.976,-1.318 3.317,3.317 0 0 0 -1.471,-0.728 3.086,3.086 0 0 0 -1.549,0.067 2.736,2.736 0 0 0 -1.3,0.889 2.7,2.7 0 0 0 -0.629,1.438 3.147,3.147 0 0 0 0.207,1.551 3.266,3.266 0 0 0 0.96,1.304 z"
       id="path82"
       style="fill:#ffffff;fill-opacity:1" />
    <path
       class="a"
       d="m 179.86188,141.25298 a 0.792,0.792 0 0 1 0.313,1.067 0.788,0.788 0 0 1 -0.469,0.373 l -5.545,1.629 -1.541,2.824 a 0.793,0.793 0 0 1 -1.067,0.313 l -4.138,-2.259 a 0.789,0.789 0 0 1 -0.313,-1.065 l 1.541,-2.823 -1.631,-5.546 a 0.781,0.781 0 0 1 0.061,-0.6 0.789,0.789 0 0 1 1.064,-0.313 z"
       id="path84"
       style="fill:#ffffff;fill-opacity:1" />
    <path
       class="a"
       d="m 177.60588,125.73798 -0.953,-0.3 a 89.466,89.466 0 0 0 4.186,-27.115002 89.471,89.471 0 0 0 -4.186,-27.114999 l 0.953,-0.3 a 90.468,90.468 0 0 1 4.233,27.416999 90.474,90.474 0 0 1 -4.233,27.413002 z"
       id="path86"
       style="fill:#ffffff;fill-opacity:1" />
    <path
       class="a"
       d="m 5.0718821,125.73798 a 90.475,90.475 0 0 1 -4.234,-27.418002 90.469,90.469 0 0 1 4.234,-27.416999 l 0.953,0.3 a 89.472,89.472 0 0 0 -4.187,27.114999 89.467,89.467 0 0 0 4.187,27.115002 z"
       id="path88"
       style="fill:#ffffff;fill-opacity:1" />
  </g>
</svg>
